<svg width="1200" height="615" viewBox="0 0 1200 615" fill="none" xmlns="http://www.w3.org/2000/svg">
    <rect width="1200" height="600" fill="#1F1F1F"/>
    <path d="M320.568 403.661V406.373H295.432V403.661H306.339V401.041H298.509V391.717H317.521V394.368H301.891V398.359H317.674V401.041H309.661V403.661H320.568ZM307.954 407.957C313.896 407.957 317.461 409.755 317.491 412.984C317.461 416.184 313.896 418.012 307.954 418.012C301.952 418.012 298.357 416.184 298.357 412.984C298.357 409.755 301.952 407.957 307.954 407.957ZM307.954 410.547C303.932 410.547 301.769 411.4 301.8 412.984C301.769 414.569 303.932 415.391 307.954 415.391C311.885 415.391 314.079 414.569 314.109 412.984C314.079 411.4 311.885 410.547 307.954 410.547ZM329.8 392.479C333.944 392.479 336.93 396.257 336.961 402.198C336.93 408.201 333.944 411.948 329.8 411.948C325.626 411.948 322.61 408.201 322.64 402.198C322.61 396.257 325.626 392.479 329.8 392.479ZM329.8 395.526C327.485 395.526 325.9 397.994 325.9 402.198C325.9 406.434 327.485 408.902 329.8 408.902C332.146 408.902 333.7 406.434 333.7 402.198C333.7 397.994 332.146 395.526 329.8 395.526ZM343.968 390.468V401.041H348.204V403.905H343.968V418.012H340.586V390.468H343.968ZM372.304 390.468V418.042H368.953V390.468H372.304ZM363.834 392.875V403.204H354.358V408.749C358.7 408.719 362.448 408.505 366.729 407.774L367.033 410.547C362.341 411.37 358.228 411.522 353.292 411.522H350.885V400.523H360.391V395.617H350.854V392.875H363.834ZM398.629 398.268V400.949H379.556V391.473H382.907V398.268H398.629ZM401.463 404.148V406.83H376.296V404.148H401.463ZM398.812 414.63V417.372H379.312V409.267H382.694V414.63H398.812ZM435.832 405.977V408.78H424.863V418.012H421.511V408.78H410.664V405.977H435.832ZM423.187 391.443C429.037 391.473 433.12 393.85 433.12 397.628C433.12 401.376 429.037 403.722 423.187 403.722C417.307 403.722 413.285 401.376 413.315 397.628C413.285 393.85 417.307 391.473 423.187 391.443ZM423.187 394.185C419.287 394.185 416.758 395.465 416.789 397.628C416.758 399.761 419.287 401.041 423.187 401.041C427.087 401.041 429.616 399.761 429.616 397.628C429.616 395.465 427.087 394.185 423.187 394.185ZM460.603 390.468V418.042H457.251V390.468H460.603ZM452.132 392.875V403.204H442.657V408.749C446.998 408.719 450.746 408.505 455.027 407.774L455.332 410.547C450.639 411.37 446.526 411.522 441.59 411.522H439.183V400.523H448.689V395.617H439.153V392.875H452.132ZM497.196 411.887V414.66H472.029V411.887H482.875V405.885H474.801V392.601H494.301V405.885H486.227V411.887H497.196ZM478.122 395.312V403.234H490.95V395.312H478.122ZM521.114 400.431V403.112H502.254V391.991H520.809V394.703H505.727V400.431H521.114ZM524.13 406.159V408.902H513.161V417.951H509.81V408.902H498.963V406.159H524.13ZM547.53 390.468V401.223H551.613V404.057H547.53V417.951H544.148V390.468H547.53ZM540.248 393.332C540.248 401.437 536.896 408.536 527.725 413.045L525.806 410.425C532.509 407.089 536.135 402.396 536.836 396.135H527.299V393.332H540.248ZM582.051 390.468V397.445H585.89V400.279H582.051V407.073H578.669V390.468H582.051ZM582.051 408.384V417.677H564.257V408.384H582.051ZM567.609 411.065V414.934H578.7V411.065H567.609ZM576.689 393.119V395.83H560.357V393.119H566.847V390.285H570.229V393.119H576.689ZM568.523 396.836C572.514 396.836 575.226 398.847 575.257 401.772C575.226 404.727 572.514 406.708 568.523 406.708C564.501 406.708 561.759 404.727 561.759 401.772C561.759 398.847 564.501 396.836 568.523 396.836ZM568.523 399.395C566.421 399.395 565.05 400.279 565.05 401.772C565.05 403.295 566.421 404.179 568.523 404.179C570.625 404.179 572.027 403.295 572.027 401.772C572.027 400.279 570.625 399.395 568.523 399.395ZM594.086 393.698C594.056 400.187 593.325 406.464 589.668 411.887L587.018 410.455C590.064 406.175 590.948 401.711 591.161 396.44H587.81V393.698H594.086ZM600.241 393.698C600.226 396.059 600.18 398.512 599.936 400.949H602.709V391.138H605.908V416.702H602.709V403.691H599.571C598.961 407.104 597.849 410.425 595.823 413.411L593.233 411.948C596.539 407.211 597.179 401.909 597.316 396.44H594.909V393.698H600.241ZM611.24 390.468V418.012H607.98V390.468H611.24ZM643.232 390.468V401.437H647.468V404.24H643.232V418.012H639.881V390.468H643.232ZM637.748 394.703V397.415H621.508V394.703H628.029V390.864H631.411V394.703H637.748ZM629.735 399.212C633.696 399.212 636.651 401.894 636.651 405.702C636.651 409.511 633.696 412.162 629.735 412.162C625.713 412.162 622.757 409.511 622.788 405.702C622.757 401.894 625.713 399.212 629.735 399.212ZM629.735 401.985C627.571 401.985 626.018 403.448 626.018 405.702C626.018 407.957 627.571 409.389 629.735 409.359C631.837 409.389 633.391 407.957 633.421 405.702C633.391 403.448 631.837 401.985 629.735 401.985ZM670.929 398.268V400.949H651.855V391.473H655.207V398.268H670.929ZM673.762 404.148V406.83H648.595V404.148H673.762ZM671.111 414.63V417.372H651.611V409.267H654.993V414.63H671.111ZM706.059 390.498V408.871H702.677V400.705H697.436V397.933H702.677V390.498H706.059ZM697.254 392.631C697.223 399.913 693.018 404.91 684.822 407.47L683.36 404.819C689.697 402.914 693.018 399.609 693.597 395.343H684.792V392.631H697.254ZM698.564 407.774C698.533 411.187 701.946 414.295 707.43 415.178L706.059 417.859C701.793 417.128 698.503 415.117 696.857 412.253C695.166 415.117 691.861 417.143 687.595 417.89L686.254 415.209C691.769 414.386 695.182 411.187 695.182 407.774V406.708H698.564V407.774ZM715.626 393.241L715.291 408.81H711.848L711.482 393.241H715.626ZM713.585 415.544C712.275 415.544 711.208 414.477 711.208 413.167C711.208 411.887 712.275 410.821 713.585 410.821C714.834 410.821 715.931 411.887 715.931 413.167C715.931 414.477 714.834 415.544 713.585 415.544ZM730.8 415.3L726.107 398.755H730.068L732.993 410.395H733.146L736.101 398.755H740.032L743.018 410.334H743.17L746.064 398.755H750.025L745.333 415.3H741.281L738.173 404.087H737.96L734.852 415.3H730.8ZM752.493 415.3V398.755H756.393V415.3H752.493ZM754.474 396.409C753.255 396.409 752.219 395.465 752.219 394.277C752.219 393.119 753.255 392.174 754.474 392.174C755.723 392.174 756.729 393.119 756.729 394.277C756.729 395.465 755.723 396.409 754.474 396.409ZM768.368 398.755V401.741H765.107V410.334C765.107 411.918 765.9 412.253 766.875 412.253C767.332 412.253 768.093 412.223 768.581 412.192V415.361C768.124 415.452 767.362 415.513 766.387 415.513C763.462 415.513 761.207 414.081 761.238 410.973V401.741H758.861V398.755H761.238V394.795H765.107V398.755H768.368ZM775.619 405.611V415.3H771.719V393.241H775.528V401.559H775.741C776.503 399.7 778.087 398.542 780.646 398.542C784.089 398.542 786.344 400.766 786.344 404.758V415.3H782.475V405.367C782.475 403.112 781.256 401.833 779.214 401.833C777.112 401.833 775.619 403.204 775.619 405.611ZM794.449 413.137L791.889 421.668H788.995L790.579 413.137H794.449ZM810.232 415.3L804.016 393.241H808.282L812.273 409.48H812.486L816.721 393.241H820.621L824.887 409.511H825.07L829.061 393.241H833.327L827.111 415.3H823.181L818.763 399.791H818.611L814.162 415.3H810.232ZM841.31 415.635C836.313 415.635 833.266 412.314 833.266 407.134C833.266 402.016 836.374 398.542 841.096 398.542C845.149 398.542 848.653 401.071 848.653 406.891V408.109H837.105C837.151 410.928 838.811 412.588 841.34 412.588C843.046 412.588 844.204 411.857 844.692 410.882H848.5C847.8 413.746 845.149 415.635 841.31 415.635ZM837.136 405.459H844.936C844.905 403.204 843.412 401.559 841.157 401.559C838.811 401.559 837.257 403.341 837.136 405.459ZM859.012 415.635C854.015 415.635 850.968 412.314 850.968 407.134C850.968 402.016 854.076 398.542 858.799 398.542C862.851 398.542 866.355 401.071 866.355 406.891V408.109H854.807C854.853 410.928 856.514 412.588 859.043 412.588C860.749 412.588 861.907 411.857 862.394 410.882H866.203C865.502 413.746 862.851 415.635 859.012 415.635ZM854.838 405.459H862.638C862.607 403.204 861.114 401.559 858.86 401.559C856.514 401.559 854.96 403.341 854.838 405.459ZM877.629 398.755V401.741H874.368V410.334C874.368 411.918 875.161 412.253 876.136 412.253C876.593 412.253 877.354 412.223 877.842 412.192V415.361C877.385 415.452 876.623 415.513 875.648 415.513C872.723 415.513 870.468 414.081 870.499 410.973V401.741H868.122V398.755H870.499V394.795H874.368V398.755H877.629ZM884.88 405.611V415.3H880.98V393.241H884.789V401.559H885.002C885.764 399.7 887.348 398.542 889.907 398.542C893.35 398.542 895.605 400.766 895.605 404.758V415.3H891.736V405.367C891.736 403.112 890.517 401.833 888.475 401.833C886.373 401.833 884.88 403.204 884.88 405.611ZM904.014 393.241L903.679 408.81H900.236L899.871 393.241H904.014ZM901.973 415.544C900.663 415.544 899.597 414.477 899.597 413.167C899.597 411.887 900.663 410.821 901.973 410.821C903.222 410.821 904.319 411.887 904.319 413.167C904.319 414.477 903.222 415.544 901.973 415.544Z" fill="#00DDA8"/>
    <path d="M390.227 337.2L364.7 243.6H399.8V278.7L411.5 243.6L434.9 220.2L458.3 267L466.809 173.4L505.1 161.7L493.4 278.7L479.573 337.2L434.9 325.5L423.2 278.7L411.5 337.2H390.227Z" fill="#00DDA8"/>
    <circle cx="395.9" cy="181.2" r="31.2" fill="#00DDA8"/>
    <path d="M550.275 341.988C523.625 341.988 507.375 324.275 507.375 296.65C507.375 269.35 523.95 250.825 549.138 250.825C570.75 250.825 589.438 264.313 589.438 295.35V301.85H527.85C528.094 316.881 536.95 325.738 550.438 325.738C559.538 325.738 565.713 321.838 568.313 316.638H588.625C584.888 331.913 570.75 341.988 550.275 341.988ZM528.013 287.713H569.613C569.45 275.688 561.488 266.913 549.463 266.913C536.95 266.913 528.663 276.419 528.013 287.713ZM644.688 341.988C618.038 341.988 601.788 324.275 601.788 296.65C601.788 269.35 618.363 250.825 643.55 250.825C665.163 250.825 683.85 264.313 683.85 295.35V301.85H622.263C622.506 316.881 631.363 325.738 644.85 325.738C653.95 325.738 660.125 321.838 662.725 316.638H683.038C679.3 331.913 665.163 341.988 644.688 341.988ZM622.425 287.713H664.025C663.863 275.688 655.9 266.913 643.875 266.913C631.363 266.913 623.075 276.419 622.425 287.713ZM743.975 251.963V267.888H726.588V313.713C726.588 322.163 730.813 323.95 736.013 323.95C738.45 323.95 742.513 323.788 745.113 323.625V340.525C742.675 341.013 738.613 341.338 733.413 341.338C717.813 341.338 705.788 333.7 705.95 317.125V267.888H693.275V251.963H705.95V230.838H726.588V251.963H743.975ZM782.65 288.525V340.2H761.85V222.55H782.163V266.913H783.3C787.363 257 795.813 250.825 809.463 250.825C827.825 250.825 839.85 262.688 839.85 283.975V340.2H819.213V287.225C819.213 275.2 812.713 268.375 801.825 268.375C790.613 268.375 782.65 275.688 782.65 288.525Z" fill="#00DDA8"/>
    <path d="M70.1298 512L-53 862.327L225.662 765.014V654.726L70.1298 512Z" fill="#D968D3"/>
    <path d="M323.44 587.2L257.39 720.066L345.457 846.451L371.143 758.954L572.964 768.676L525.261 664.976L385.821 697.382V645.532L580.303 664.976L554.617 532.109L323.44 587.2Z" fill="#FF5858"/>
    <path d="M664.318 667.641L738.915 512L876.634 560.829L865.157 634.072L664.318 667.641Z" fill="#508FFF"/>
    <path d="M1062.16 532.109L1197.77 584.525L1254 807.622L1118.39 828.006L1138.23 634.029L1085.31 634.029L1118.39 744.685L1012.55 782.54L1022.47 622.381L981.402 612.52L996.609 843.276L908.361 823.222L931.514 600.541L1062.16 532.109Z" fill="#EBEBEB"/>
    <path d="M-684 183.5C-684 183.5 -608.232 113 -548.625 113C-489.018 113 -413.25 183.5 -413.25 183.5C-413.25 183.5 -337.482 113 -277.875 113C-218.268 113 -142.5 183.5 -142.5 183.5C-142.5 183.5 -66.7317 113 -7.125 113C52.4817 113 128.25 183.5 128.25 183.5C128.25 183.5 204.018 112.887 263.625 113C321.303 113.109 369.121 140.688 403.5 187" stroke="#00DDA8" stroke-dasharray="8 8"/>
</svg>
